<?xml version="1.0" standalone="no"?>
<!DOCTYPE svg PUBLIC "-//W3C//DTD SVG 1.1//EN" "http://www.w3.org/Graphics/SVG/1.1/DTD/svg11.dtd" >
<svg xmlns="http://www.w3.org/2000/svg" xmlns:xlink="http://www.w3.org/1999/xlink" version="1.1">
<metadata></metadata>
<defs>
<font id="foughtknightregular" horiz-adv-x="1472" >
<font-face units-per-em="2048" ascent="1638" descent="-410" />
<missing-glyph horiz-adv-x="704" />
<glyph horiz-adv-x="0" />
<glyph horiz-adv-x="682" />
<glyph unicode=" "  horiz-adv-x="704" />
<glyph unicode="&#x09;" horiz-adv-x="704" />
<glyph unicode="&#xa0;" horiz-adv-x="704" />
<glyph unicode="!" horiz-adv-x="384" d="M0 0v320h320v-320h-320zM0 384v704h320v-704h-320z" />
<glyph unicode="&#x22;" horiz-adv-x="768" d="M0 768v320h320v-320h-320zM384 768v320h320v-320h-320z" />
<glyph unicode="#" d="M0 128v320h128v192h-128v320h128v128h320v-128h512v128h320v-128h128v-320h-128v-192h128v-320h-128v-128h-320v128h-512v-128h-320v128h-128zM448 448h512v192h-512v-192z" />
<glyph unicode="$" horiz-adv-x="1408" d="M0 0v320h512v64h-512v704h512v128h320v-128h512v-320h-512v-64h512v-704h-512v-128h-320v128h-512zM320 704h192v64h-192v-64zM832 320h192v64h-192v-64z" />
<glyph unicode="%" d="M-64 0l1088 1088h448l-1088 -1088h-448zM0 768v320h320v-320h-320zM1088 0v320h320v-320h-320z" />
<glyph unicode="&#x26;" d="M0 0v1088h640v-320h-320v-64h192l320 -320h-512v-64h768v128h320v-448h-1408z" />
<glyph unicode="'" horiz-adv-x="384" d="M0 768v320h320v-320h-320z" />
<glyph unicode="(" horiz-adv-x="512" d="M0 0v1088h448v-320h-128v-448h128v-320h-448z" />
<glyph unicode=")" horiz-adv-x="512" d="M0 0v320h128v448h-128v320h448v-1088h-448z" />
<glyph unicode="*" d="M0 128l256 256h-256v320h256l-256 256h448l64 -64v192h320v-192l64 64h448l-256 -256h256v-320h-256l256 -256h-448l-64 64v-192h-320v192l-64 -64h-448z" />
<glyph unicode="+" horiz-adv-x="1024" d="M0 384v320h320v320h320v-320h320v-320h-320v-320h-320v320h-320z" />
<glyph unicode="," horiz-adv-x="384" d="M0 320h320v-640l-320 -320v960z" />
<glyph unicode="-" horiz-adv-x="1024" d="M0 384v320h960v-320h-960z" />
<glyph unicode="." horiz-adv-x="384" d="M0 0v320h320v-320h-320z" />
<glyph unicode="/" d="M-64 0l1088 1088h448l-1088 -1088h-448z" />
<glyph unicode="0" d="M0 0v1088h1408v-1088h-1408zM320 320h768v448h-768v-448z" />
<glyph unicode="1" horiz-adv-x="384" d="M0 0v768l320 320v-1088h-320z" />
<glyph unicode="2" d="M-64 0l704 704h448v64h-1088v320h1408v-704h-640l-64 -64h704v-320h-1472z" />
<glyph unicode="3" d="M0 0v320h1088v64h-1088l320 320h768v64h-1088v320h1408v-1088h-1408z" />
<glyph unicode="4" d="M0 384v704h320v-384h768v384h320v-1088h-320v384h-1088z" />
<glyph unicode="5" d="M0 0v320h704l-64 64h-640v704h1408v-320h-1088v-64h448l704 -704h-1472z" />
<glyph unicode="6" d="M0 0v1088h1408v-320h-1088v-64h1088v-704h-1408zM320 320h768v64h-768v-64z" />
<glyph unicode="7" d="M-64 0l768 768h-704v320h1472l-1088 -1088h-448z" />
<glyph unicode="8" d="M0 0v1088h1408v-1088h-1408zM320 320h768v64h-768v-64zM320 704h768v64h-768v-64z" />
<glyph unicode="9" d="M0 0v320h1088v64h-1088v704h1408v-1088h-1408zM320 704h768v64h-768v-64z" />
<glyph unicode=":" horiz-adv-x="384" d="M0 64v320h320v-320h-320zM0 704v320h320v-320h-320z" />
<glyph unicode=";" horiz-adv-x="384" d="M0 384h320v-640l-320 -320v960zM0 704v320h320v-320h-320z" />
<glyph unicode="&#x3c;" horiz-adv-x="960" d="M-32 544l544 544h448l-544 -544l544 -544h-448z" />
<glyph unicode="=" d="M0 128v320h1408v-320h-1408zM0 640v320h1408v-320h-1408z" />
<glyph unicode="&#x3e;" horiz-adv-x="960" d="M-64 0l544 544l-544 544h448l544 -544l-544 -544h-448z" />
<glyph unicode="?" d="M0 0v320h320v-320h-320zM0 384v320h1088v64h-1088v320h1408v-704h-1408z" />
<glyph unicode="@" d="M0 0v1088h1408v-704h-1024v320h704v64h-768v-448h1088v-320h-1408z" />
<glyph unicode="A" d="M0 0l1408 1408v-1408h-320v640l-640 -640h-448z" />
<glyph unicode="B" horiz-adv-x="1280" d="M0 -640v1728h1216l-384 -384h512zM320 128l256 256h-256v-256zM320 704h64l64 64h-128v-64z" />
<glyph unicode="C" d="M0 0v1088h1408v-320h-1088v-448h1088v-320h-1408z" />
<glyph unicode="D" d="M0 -320v1408h1408v-704l-384 -384h-640v320h512l192 192v256h-768v-768z" />
<glyph unicode="E" d="M0 0v1088h1408v-320h-1088v-64h1088l-320 -320h-768v-64h1088v-320h-1408z" />
<glyph unicode="F" d="M0 -640v1728h1408v-320h-1088v-64h1088v-320h-1088v-704z" />
<glyph unicode="G" d="M0 0v1088h1408v-320h-1088v-448h768v64h-384l-320 320h1024v-704h-1408z" />
<glyph unicode="H" d="M0 -640v1728h320v-384h768v384h320v-1088h-320v384h-768v-704z" />
<glyph unicode="I" horiz-adv-x="384" d="M0 0v1088h320v-1088h-320z" />
<glyph unicode="J" d="M0 0v320h896l192 192v896l320 320v-1344l-384 -384h-1024z" />
<glyph unicode="K" d="M0 -640v1728h320v-384h384l384 384h448l-544 -544l544 -544h-448l-384 384h-384v-704z" />
<glyph unicode="L" d="M0 0v1088h320v-768h1088v-320h-1408z" />
<glyph unicode="M" d="M0 -640v1792l704 -704l704 704v-1152h-320v384l-384 -384l-384 384v-704z" />
<glyph unicode="N" d="M0 0v1472l1088 -1088v704h320v-1472l-1088 1088v-704h-320z" />
<glyph unicode="O" d="M0 0v1088h1408v-1088h-1408zM320 320h768v448h-768v-448z" />
<glyph unicode="P" d="M0 -640v1728h1408v-320l-384 -384h-640v320h512l64 64h-640v-1088z" />
<glyph unicode="Q" d="M0 0v1088h1408v-960l64 -64v-448l-384 384h-1088zM320 320h448l-384 384h448l256 -256v320h-768v-448z" />
<glyph unicode="R" d="M0 0v1088h1408v-704h-256l320 -320v-448l-1088 1088h704v64h-768v-768h-320z" />
<glyph unicode="S" d="M-64 1088h1472v-320h-704l768 -768h-1472v320h704z" />
<glyph unicode="T" horiz-adv-x="1408" d="M0 768v320h1344v-320h-512v-768h-320v768h-512z" />
<glyph unicode="U" d="M0 0v1088h320v-768h768v1088l320 320v-1728h-1408z" />
<glyph unicode="V" d="M0 1088h448l640 -640v640h320v-1408z" />
<glyph unicode="W" d="M0 -64v1152h320v-384l384 384l384 -384v384h320v-1152l-704 704z" />
<glyph unicode="X" d="M-128 0l544 544l-544 544h448l384 -384l384 384h448l-544 -544l544 -544h-448l-384 384l-384 -384h-448z" />
<glyph unicode="Y" horiz-adv-x="1408" d="M-128 1088h448l352 -352l352 352h448l-640 -640v-768l-320 -320v1088z" />
<glyph unicode="Z" d="M-64 0l768 768h-704v320h1472l-768 -768h704v-320h-1472z" />
<glyph unicode="[" horiz-adv-x="512" d="M0 0v1088h448v-320h-128v-448h128v-320h-448z" />
<glyph unicode="\" d="M-64 1088h448l1088 -1088h-448z" />
<glyph unicode="]" horiz-adv-x="512" d="M0 0v320h128v448h-128v320h448v-1088h-448z" />
<glyph unicode="^" horiz-adv-x="576" d="M0 448v384l256 256l256 -256v-384l-256 256z" />
<glyph unicode="_" d="M0 0v320h1408v-320h-1408z" />
<glyph unicode="`" horiz-adv-x="384" d="M0 768v320h320v-320h-320z" />
<glyph unicode="a" d="M0 0v1408l1408 -1408h-448l-640 640v-640h-320z" />
<glyph unicode="b" d="M0 0v1088h1536l-384 -384h256v-704h-1408zM320 320h768v64h-768v-64zM320 704h384l64 64h-448v-64z" />
<glyph unicode="c" d="M0 0v1088h1408v-320h-1088v-448h1088v-320h-1408z" />
<glyph unicode="d" d="M0 0v1088h1408v-704l-384 -384h-1024zM320 320h576l192 192v256h-768v-448z" />
<glyph unicode="e" d="M0 0v320h1408v-320h-1408zM0 384v320h1408v-320h-1408zM0 768v320h1408v-320h-1408z" />
<glyph unicode="f" d="M0 0v1088h1408v-320h-1088v-64h1088v-320h-1088v-384h-320z" />
<glyph unicode="g" d="M0 0v1088h1408v-320h-1088v-448h448l-384 384h448l704 -704h-1536z" />
<glyph unicode="h" d="M0 0v1088h320v-384h768v384h320v-1088h-320v384h-768v-384h-320z" />
<glyph unicode="i" horiz-adv-x="384" d="M0 0v1088h320v-1088h-320z" />
<glyph unicode="j" d="M0 0v320h896l192 192v576h320v-704l-384 -384h-1024z" />
<glyph unicode="k" d="M0 0v1088h320v-384h384l384 384h448l-544 -544l544 -544h-448l-384 384h-384v-384h-320z" />
<glyph unicode="l" d="M0 0v1088h320v-768h1088v-320h-1408z" />
<glyph unicode="m" d="M0 0v1152l704 -704l704 704v-1152h-320v384l-384 -384l-384 384v-384h-320z" />
<glyph unicode="n" d="M0 0v1472l1088 -1088v704h320v-1472l-1088 1088v-704h-320z" />
<glyph unicode="o" d="M0 0v1088h1408v-1088h-1408zM320 320h768v448h-768v-448z" />
<glyph unicode="p" d="M0 0v1088h1408v-320l-384 -384h-640v320h512l64 64h-640v-768h-320z" />
<glyph unicode="q" d="M0 0v1088h1408v-960l64 -64v-448l-384 384h-1088zM320 320h448l-384 384h448l256 -256v320h-768v-448z" />
<glyph unicode="r" d="M0 0v1088h1408v-704h-256l384 -384h-448l-704 704h704v64h-768v-768h-320z" />
<glyph unicode="s" d="M0 0v320h1088v64h-1088v704h1408v-320h-1088v-64h1088v-704h-1408z" />
<glyph unicode="t" horiz-adv-x="1408" d="M0 768v320h1344v-320h-512v-768h-320v768h-512z" />
<glyph unicode="u" d="M0 0v1088h320v-768h768v768h320v-1088h-1408z" />
<glyph unicode="v" d="M0 -320v1408h320v-640l640 640h448z" />
<glyph unicode="w" d="M0 -64v1152h320v-384l384 384l384 -384v384h320v-1152l-704 704z" />
<glyph unicode="x" d="M-128 0l544 544l-544 544h448l384 -384l384 384h448l-544 -544l544 -544h-448l-384 384l-384 -384h-448z" />
<glyph unicode="y" horiz-adv-x="1408" d="M-128 1088h448l352 -352l352 352h448l-640 -640v-448h-320v448z" />
<glyph unicode="z" d="M-64 0l768 768h-704v320h1472l-768 -768h704v-320h-1472z" />
<glyph unicode="{" horiz-adv-x="640" d="M0 384v320h128v384h448v-320h-128v-448h128v-320h-448v384h-128z" />
<glyph unicode="|" horiz-adv-x="384" d="M0 0v1088h320v-1088h-320z" />
<glyph unicode="}" horiz-adv-x="640" d="M0 0v320h128v448h-128v320h448v-384h128v-320h-128v-384h-448z" />
<glyph unicode="~" horiz-adv-x="1024" d="M0 384v320h960v-320h-960z" />
<glyph unicode="&#xa1;" horiz-adv-x="2496" d="M0 0v640l320 -320v320h128v-640l-320 320v-320h-128zM512 0v640l448 -448v-192l-320 320v-320h-128zM1024 0v640h128v-512h320v-128h-448zM1536 0v128h128v-128h-128zM1728 0v128h192v64h-192v320h320v-128h-192v-64h192v-320h-320zM2112 0v512h320v-512h-320zM2240 128 h64v256h-64v-256z" />
<glyph unicode="&#xa2;" horiz-adv-x="2496" d="M0 0v640l320 -320v320h128v-640l-320 320v-320h-128zM512 0v640l448 -448v-192l-320 320v-320h-128zM1024 0v640h128v-512h320v-128h-448zM1536 0v128h128v-128h-128zM1728 0v128h192v64h-192v320h320v-128h-192v-64h192v-320h-320zM2112 0v512h320v-512h-320zM2240 128 h64v256h-64v-256z" />
<glyph unicode="&#xa3;" d="M0 0v320h320v64h-320v320h320v384h1088v-320h-768v-64h768l-320 -320h-448v-64h768v-320h-1408z" />
<glyph unicode="&#xa4;" horiz-adv-x="2496" d="M0 0v640l320 -320v320h128v-640l-320 320v-320h-128zM512 0v640l448 -448v-192l-320 320v-320h-128zM1024 0v640h128v-512h320v-128h-448zM1536 0v128h128v-128h-128zM1728 0v128h192v64h-192v320h320v-128h-192v-64h192v-320h-320zM2112 0v512h320v-512h-320zM2240 128 h64v256h-64v-256z" />
<glyph unicode="&#xa5;" horiz-adv-x="2496" d="M0 0v640l320 -320v320h128v-640l-320 320v-320h-128zM512 0v640l448 -448v-192l-320 320v-320h-128zM1024 0v640h128v-512h320v-128h-448zM1536 0v128h128v-128h-128zM1728 0v128h192v64h-192v320h320v-128h-192v-64h192v-320h-320zM2112 0v512h320v-512h-320zM2240 128 h64v256h-64v-256z" />
<glyph unicode="&#xa6;" horiz-adv-x="2496" d="M0 0v640l320 -320v320h128v-640l-320 320v-320h-128zM512 0v640l448 -448v-192l-320 320v-320h-128zM1024 0v640h128v-512h320v-128h-448zM1536 0v128h128v-128h-128zM1728 0v128h192v64h-192v320h320v-128h-192v-64h192v-320h-320zM2112 0v512h320v-512h-320zM2240 128 h64v256h-64v-256z" />
<glyph unicode="&#xa7;" horiz-adv-x="2496" d="M0 0v640l320 -320v320h128v-640l-320 320v-320h-128zM512 0v640l448 -448v-192l-320 320v-320h-128zM1024 0v640h128v-512h320v-128h-448zM1536 0v128h128v-128h-128zM1728 0v128h192v64h-192v320h320v-128h-192v-64h192v-320h-320zM2112 0v512h320v-512h-320zM2240 128 h64v256h-64v-256z" />
<glyph unicode="&#xa8;" horiz-adv-x="2496" d="M0 0v640l320 -320v320h128v-640l-320 320v-320h-128zM512 0v640l448 -448v-192l-320 320v-320h-128zM1024 0v640h128v-512h320v-128h-448zM1536 0v128h128v-128h-128zM1728 0v128h192v64h-192v320h320v-128h-192v-64h192v-320h-320zM2112 0v512h320v-512h-320zM2240 128 h64v256h-64v-256z" />
<glyph unicode="&#xa9;" horiz-adv-x="2496" d="M0 0v640l320 -320v320h128v-640l-320 320v-320h-128zM512 0v640l448 -448v-192l-320 320v-320h-128zM1024 0v640h128v-512h320v-128h-448zM1536 0v128h128v-128h-128zM1728 0v128h192v64h-192v320h320v-128h-192v-64h192v-320h-320zM2112 0v512h320v-512h-320zM2240 128 h64v256h-64v-256z" />
<glyph unicode="&#xaa;" horiz-adv-x="2496" d="M0 0v640l320 -320v320h128v-640l-320 320v-320h-128zM512 0v640l448 -448v-192l-320 320v-320h-128zM1024 0v640h128v-512h320v-128h-448zM1536 0v128h128v-128h-128zM1728 0v128h192v64h-192v320h320v-128h-192v-64h192v-320h-320zM2112 0v512h320v-512h-320zM2240 128 h64v256h-64v-256z" />
<glyph unicode="&#xab;" horiz-adv-x="2496" d="M0 0v640l320 -320v320h128v-640l-320 320v-320h-128zM512 0v640l448 -448v-192l-320 320v-320h-128zM1024 0v640h128v-512h320v-128h-448zM1536 0v128h128v-128h-128zM1728 0v128h192v64h-192v320h320v-128h-192v-64h192v-320h-320zM2112 0v512h320v-512h-320zM2240 128 h64v256h-64v-256z" />
<glyph unicode="&#xac;" horiz-adv-x="2496" d="M0 0v640l320 -320v320h128v-640l-320 320v-320h-128zM512 0v640l448 -448v-192l-320 320v-320h-128zM1024 0v640h128v-512h320v-128h-448zM1536 0v128h128v-128h-128zM1728 0v128h192v64h-192v320h320v-128h-192v-64h192v-320h-320zM2112 0v512h320v-512h-320zM2240 128 h64v256h-64v-256z" />
<glyph unicode="&#xad;" horiz-adv-x="2496" d="M0 0v640l320 -320v320h128v-640l-320 320v-320h-128zM512 0v640l448 -448v-192l-320 320v-320h-128zM1024 0v640h128v-512h320v-128h-448zM1536 0v128h128v-128h-128zM1728 0v128h192v64h-192v320h320v-128h-192v-64h192v-320h-320zM2112 0v512h320v-512h-320zM2240 128 h64v256h-64v-256z" />
<glyph unicode="&#xae;" horiz-adv-x="2496" d="M0 0v640l320 -320v320h128v-640l-320 320v-320h-128zM512 0v640l448 -448v-192l-320 320v-320h-128zM1024 0v640h128v-512h320v-128h-448zM1536 0v128h128v-128h-128zM1728 0v128h192v64h-192v320h320v-128h-192v-64h192v-320h-320zM2112 0v512h320v-512h-320zM2240 128 h64v256h-64v-256z" />
<glyph unicode="&#xaf;" horiz-adv-x="2496" d="M0 0v640l320 -320v320h128v-640l-320 320v-320h-128zM512 0v640l448 -448v-192l-320 320v-320h-128zM1024 0v640h128v-512h320v-128h-448zM1536 0v128h128v-128h-128zM1728 0v128h192v64h-192v320h320v-128h-192v-64h192v-320h-320zM2112 0v512h320v-512h-320zM2240 128 h64v256h-64v-256z" />
<glyph unicode="&#xb0;" horiz-adv-x="2496" d="M0 0v640l320 -320v320h128v-640l-320 320v-320h-128zM512 0v640l448 -448v-192l-320 320v-320h-128zM1024 0v640h128v-512h320v-128h-448zM1536 0v128h128v-128h-128zM1728 0v128h192v64h-192v320h320v-128h-192v-64h192v-320h-320zM2112 0v512h320v-512h-320zM2240 128 h64v256h-64v-256z" />
<glyph unicode="&#xb1;" horiz-adv-x="2496" d="M0 0v640l320 -320v320h128v-640l-320 320v-320h-128zM512 0v640l448 -448v-192l-320 320v-320h-128zM1024 0v640h128v-512h320v-128h-448zM1536 0v128h128v-128h-128zM1728 0v128h192v64h-192v320h320v-128h-192v-64h192v-320h-320zM2112 0v512h320v-512h-320zM2240 128 h64v256h-64v-256z" />
<glyph unicode="&#xb2;" horiz-adv-x="2496" d="M0 0v640l320 -320v320h128v-640l-320 320v-320h-128zM512 0v640l448 -448v-192l-320 320v-320h-128zM1024 0v640h128v-512h320v-128h-448zM1536 0v128h128v-128h-128zM1728 0v128h192v64h-192v320h320v-128h-192v-64h192v-320h-320zM2112 0v512h320v-512h-320zM2240 128 h64v256h-64v-256z" />
<glyph unicode="&#xb3;" horiz-adv-x="2496" d="M0 0v640l320 -320v320h128v-640l-320 320v-320h-128zM512 0v640l448 -448v-192l-320 320v-320h-128zM1024 0v640h128v-512h320v-128h-448zM1536 0v128h128v-128h-128zM1728 0v128h192v64h-192v320h320v-128h-192v-64h192v-320h-320zM2112 0v512h320v-512h-320zM2240 128 h64v256h-64v-256z" />
<glyph unicode="&#xb4;" horiz-adv-x="2496" d="M0 0v640l320 -320v320h128v-640l-320 320v-320h-128zM512 0v640l448 -448v-192l-320 320v-320h-128zM1024 0v640h128v-512h320v-128h-448zM1536 0v128h128v-128h-128zM1728 0v128h192v64h-192v320h320v-128h-192v-64h192v-320h-320zM2112 0v512h320v-512h-320zM2240 128 h64v256h-64v-256z" />
<glyph unicode="&#xb5;" horiz-adv-x="2496" d="M0 0v640l320 -320v320h128v-640l-320 320v-320h-128zM512 0v640l448 -448v-192l-320 320v-320h-128zM1024 0v640h128v-512h320v-128h-448zM1536 0v128h128v-128h-128zM1728 0v128h192v64h-192v320h320v-128h-192v-64h192v-320h-320zM2112 0v512h320v-512h-320zM2240 128 h64v256h-64v-256z" />
<glyph unicode="&#xb6;" horiz-adv-x="2496" d="M0 0v640l320 -320v320h128v-640l-320 320v-320h-128zM512 0v640l448 -448v-192l-320 320v-320h-128zM1024 0v640h128v-512h320v-128h-448zM1536 0v128h128v-128h-128zM1728 0v128h192v64h-192v320h320v-128h-192v-64h192v-320h-320zM2112 0v512h320v-512h-320zM2240 128 h64v256h-64v-256z" />
<glyph unicode="&#xb7;" horiz-adv-x="2496" d="M0 0v640l320 -320v320h128v-640l-320 320v-320h-128zM512 0v640l448 -448v-192l-320 320v-320h-128zM1024 0v640h128v-512h320v-128h-448zM1536 0v128h128v-128h-128zM1728 0v128h192v64h-192v320h320v-128h-192v-64h192v-320h-320zM2112 0v512h320v-512h-320zM2240 128 h64v256h-64v-256z" />
<glyph unicode="&#xb8;" horiz-adv-x="2496" d="M0 0v640l320 -320v320h128v-640l-320 320v-320h-128zM512 0v640l448 -448v-192l-320 320v-320h-128zM1024 0v640h128v-512h320v-128h-448zM1536 0v128h128v-128h-128zM1728 0v128h192v64h-192v320h320v-128h-192v-64h192v-320h-320zM2112 0v512h320v-512h-320zM2240 128 h64v256h-64v-256z" />
<glyph unicode="&#xb9;" horiz-adv-x="2496" d="M0 0v640l320 -320v320h128v-640l-320 320v-320h-128zM512 0v640l448 -448v-192l-320 320v-320h-128zM1024 0v640h128v-512h320v-128h-448zM1536 0v128h128v-128h-128zM1728 0v128h192v64h-192v320h320v-128h-192v-64h192v-320h-320zM2112 0v512h320v-512h-320zM2240 128 h64v256h-64v-256z" />
<glyph unicode="&#xba;" horiz-adv-x="2496" d="M0 0v640l320 -320v320h128v-640l-320 320v-320h-128zM512 0v640l448 -448v-192l-320 320v-320h-128zM1024 0v640h128v-512h320v-128h-448zM1536 0v128h128v-128h-128zM1728 0v128h192v64h-192v320h320v-128h-192v-64h192v-320h-320zM2112 0v512h320v-512h-320zM2240 128 h64v256h-64v-256z" />
<glyph unicode="&#xbb;" horiz-adv-x="2496" d="M0 0v640l320 -320v320h128v-640l-320 320v-320h-128zM512 0v640l448 -448v-192l-320 320v-320h-128zM1024 0v640h128v-512h320v-128h-448zM1536 0v128h128v-128h-128zM1728 0v128h192v64h-192v320h320v-128h-192v-64h192v-320h-320zM2112 0v512h320v-512h-320zM2240 128 h64v256h-64v-256z" />
<glyph unicode="&#xbc;" horiz-adv-x="2496" d="M0 0v640l320 -320v320h128v-640l-320 320v-320h-128zM512 0v640l448 -448v-192l-320 320v-320h-128zM1024 0v640h128v-512h320v-128h-448zM1536 0v128h128v-128h-128zM1728 0v128h192v64h-192v320h320v-128h-192v-64h192v-320h-320zM2112 0v512h320v-512h-320zM2240 128 h64v256h-64v-256z" />
<glyph unicode="&#xbd;" horiz-adv-x="2496" d="M0 0v640l320 -320v320h128v-640l-320 320v-320h-128zM512 0v640l448 -448v-192l-320 320v-320h-128zM1024 0v640h128v-512h320v-128h-448zM1536 0v128h128v-128h-128zM1728 0v128h192v64h-192v320h320v-128h-192v-64h192v-320h-320zM2112 0v512h320v-512h-320zM2240 128 h64v256h-64v-256z" />
<glyph unicode="&#xbe;" horiz-adv-x="2496" d="M0 0v640l320 -320v320h128v-640l-320 320v-320h-128zM512 0v640l448 -448v-192l-320 320v-320h-128zM1024 0v640h128v-512h320v-128h-448zM1536 0v128h128v-128h-128zM1728 0v128h192v64h-192v320h320v-128h-192v-64h192v-320h-320zM2112 0v512h320v-512h-320zM2240 128 h64v256h-64v-256z" />
<glyph unicode="&#xbf;" horiz-adv-x="2496" d="M0 0v640l320 -320v320h128v-640l-320 320v-320h-128zM512 0v640l448 -448v-192l-320 320v-320h-128zM1024 0v640h128v-512h320v-128h-448zM1536 0v128h128v-128h-128zM1728 0v128h192v64h-192v320h320v-128h-192v-64h192v-320h-320zM2112 0v512h320v-512h-320zM2240 128 h64v256h-64v-256z" />
<glyph unicode="&#xc0;" d="M0 0l1408 1408v-1408h-320v640l-640 -640h-448z" />
<glyph unicode="&#xc1;" d="M0 0l1408 1408v-1408h-320v640l-640 -640h-448z" />
<glyph unicode="&#xc2;" d="M0 0l1408 1408v-1408h-320v640l-640 -640h-448z" />
<glyph unicode="&#xc3;" d="M0 0l1408 1408v-1408h-320v640l-640 -640h-448z" />
<glyph unicode="&#xc4;" d="M0 0l1408 1408v-1408h-320v640l-640 -640h-448z" />
<glyph unicode="&#xc5;" d="M0 0l1408 1408v-1408h-320v640l-640 -640h-448z" />
<glyph unicode="&#xc6;" horiz-adv-x="2560" d="M0 0l1088 1088h1408v-320h-1088v-64h1088l-320 -320h-768v-64h1088v-320h-1408v640l-640 -640h-448z" />
<glyph unicode="&#xc7;" d="M0 0v1088h1408v-320h-1088v-448h1088v-320h-1408z" />
<glyph unicode="&#xc8;" d="M0 0v1088h1408v-320h-1088v-64h1088l-320 -320h-768v-64h1088v-320h-1408z" />
<glyph unicode="&#xc9;" d="M0 0v1088h1408v-320h-1088v-64h1088l-320 -320h-768v-64h1088v-320h-1408z" />
<glyph unicode="&#xca;" d="M0 0v1088h1408v-320h-1088v-64h1088l-320 -320h-768v-64h1088v-320h-1408z" />
<glyph unicode="&#xcb;" d="M0 0v1088h1408v-320h-1088v-64h1088l-320 -320h-768v-64h1088v-320h-1408z" />
<glyph unicode="&#xcc;" horiz-adv-x="384" d="M0 0v1088h320v-1088h-320z" />
<glyph unicode="&#xcd;" horiz-adv-x="384" d="M0 0v1088h320v-1088h-320z" />
<glyph unicode="&#xce;" horiz-adv-x="384" d="M0 0v1088h320v-1088h-320z" />
<glyph unicode="&#xcf;" horiz-adv-x="384" d="M0 0v1088h320v-1088h-320z" />
<glyph unicode="&#xd0;" d="M0 0v1088h1088v64h-64v64h64v64h320v-64h64v-64h-64v-1152h-1408zM320 320h768v448h-768v-448z" />
<glyph unicode="&#xd1;" d="M0 0v1472l1088 -1088v704h320v-1472l-1088 1088v-704h-320z" />
<glyph unicode="&#xd2;" d="M0 0v1088h1408v-1088h-1408zM320 320h768v448h-768v-448z" />
<glyph unicode="&#xd3;" d="M0 0v1088h1408v-1088h-1408zM320 320h768v448h-768v-448z" />
<glyph unicode="&#xd4;" d="M0 0v1088h1408v-1088h-1408zM320 320h768v448h-768v-448z" />
<glyph unicode="&#xd5;" d="M0 0v1088h1408v-1088h-1408zM320 320h768v448h-768v-448z" />
<glyph unicode="&#xd6;" d="M0 0v1088h1408v-1088h-1408zM320 320h768v448h-768v-448z" />
<glyph unicode="&#xd7;" horiz-adv-x="2496" d="M0 0v640l320 -320v320h128v-640l-320 320v-320h-128zM512 0v640l448 -448v-192l-320 320v-320h-128zM1024 0v640h128v-512h320v-128h-448zM1536 0v128h128v-128h-128zM1728 0v128h192v64h-192v320h320v-128h-192v-64h192v-320h-320zM2112 0v512h320v-512h-320zM2240 128 h64v256h-64v-256z" />
<glyph unicode="&#xd8;" d="M0 0v1088h1408v-1088h-1408zM320 320h768v448h-768v-448z" />
<glyph unicode="&#xd9;" d="M0 0v1088h320v-768h768v1088l320 320v-1728h-1408z" />
<glyph unicode="&#xda;" d="M0 0v1088h320v-768h768v1088l320 320v-1728h-1408z" />
<glyph unicode="&#xdb;" d="M0 0v1088h320v-768h768v1088l320 320v-1728h-1408z" />
<glyph unicode="&#xdc;" d="M0 0v1088h320v-768h768v1088l320 320v-1728h-1408z" />
<glyph unicode="&#xdd;" horiz-adv-x="1408" d="M-128 1088h448l352 -352l352 352h448l-640 -640v-768l-320 -320v1088z" />
<glyph unicode="&#xde;" horiz-adv-x="2496" d="M0 0v640l320 -320v320h128v-640l-320 320v-320h-128zM512 0v640l448 -448v-192l-320 320v-320h-128zM1024 0v640h128v-512h320v-128h-448zM1536 0v128h128v-128h-128zM1728 0v128h192v64h-192v320h320v-128h-192v-64h192v-320h-320zM2112 0v512h320v-512h-320zM2240 128 h64v256h-64v-256z" />
<glyph unicode="&#xdf;" horiz-adv-x="1408" d="M0 -640v1728h1216l-384 -384h512l-960 -960v448l192 192h-192v320l64 64h-128v-1088z" />
<glyph unicode="&#xe0;" d="M0 0v1408l1408 -1408h-448l-640 640v-640h-320z" />
<glyph unicode="&#xe1;" d="M0 0v1408l1408 -1408h-448l-640 640v-640h-320z" />
<glyph unicode="&#xe2;" d="M0 0v1408l1408 -1408h-448l-640 640v-640h-320z" />
<glyph unicode="&#xe3;" d="M0 0v1408l1408 -1408h-448l-640 640v-640h-320z" />
<glyph unicode="&#xe4;" d="M0 0v1408l1408 -1408h-448l-640 640v-640h-320z" />
<glyph unicode="&#xe5;" d="M0 0v1408l1408 -1408h-448l-640 640v-640h-320z" />
<glyph unicode="&#xe6;" horiz-adv-x="2560" d="M0 0l1088 1088h1408v-320h-1088v-64h1088l-320 -320h-768v-64h1088v-320h-1408v640l-640 -640h-448z" />
<glyph unicode="&#xe7;" d="M0 0v1088h1408v-320h-1088v-448h1088v-320h-1408z" />
<glyph unicode="&#xe8;" d="M0 0v320h1408v-320h-1408zM0 384v320h1408v-320h-1408zM0 768v320h1408v-320h-1408z" />
<glyph unicode="&#xe9;" d="M0 0v320h1408v-320h-1408zM0 384v320h1408v-320h-1408zM0 768v320h1408v-320h-1408z" />
<glyph unicode="&#xea;" d="M0 0v320h1408v-320h-1408zM0 384v320h1408v-320h-1408zM0 768v320h1408v-320h-1408z" />
<glyph unicode="&#xeb;" d="M0 0v320h1408v-320h-1408zM0 384v320h1408v-320h-1408zM0 768v320h1408v-320h-1408z" />
<glyph unicode="&#xec;" horiz-adv-x="384" d="M0 0v1088h320v-1088h-320z" />
<glyph unicode="&#xed;" horiz-adv-x="384" d="M0 0v1088h320v-1088h-320z" />
<glyph unicode="&#xee;" horiz-adv-x="384" d="M0 0v1088h320v-1088h-320z" />
<glyph unicode="&#xef;" horiz-adv-x="384" d="M0 0v1088h320v-1088h-320z" />
<glyph unicode="&#xf0;" d="M0 0v1088h1088v64h-64v64h64v64h320v-64h64v-64h-64v-1152h-1408zM320 320h768v448h-768v-448z" />
<glyph unicode="&#xf1;" d="M0 0v1472l1088 -1088v704h320v-1472l-1088 1088v-704h-320z" />
<glyph unicode="&#xf2;" d="M0 0v1088h1408v-1088h-1408zM320 320h768v448h-768v-448z" />
<glyph unicode="&#xf3;" d="M0 0v1088h1408v-1088h-1408zM320 320h768v448h-768v-448z" />
<glyph unicode="&#xf4;" d="M0 0v1088h1408v-1088h-1408zM320 320h768v448h-768v-448z" />
<glyph unicode="&#xf5;" d="M0 0v1088h1408v-1088h-1408zM320 320h768v448h-768v-448z" />
<glyph unicode="&#xf6;" d="M0 0v1088h1408v-1088h-1408zM320 320h768v448h-768v-448z" />
<glyph unicode="&#xf7;" horiz-adv-x="2496" d="M0 0v640l320 -320v320h128v-640l-320 320v-320h-128zM512 0v640l448 -448v-192l-320 320v-320h-128zM1024 0v640h128v-512h320v-128h-448zM1536 0v128h128v-128h-128zM1728 0v128h192v64h-192v320h320v-128h-192v-64h192v-320h-320zM2112 0v512h320v-512h-320zM2240 128 h64v256h-64v-256z" />
<glyph unicode="&#xf8;" d="M0 0v1088h1408v-1088h-1408zM320 320h768v448h-768v-448z" />
<glyph unicode="&#xf9;" d="M0 0v1088h320v-768h768v768h320v-1088h-1408z" />
<glyph unicode="&#xfa;" d="M0 0v1088h320v-768h768v768h320v-1088h-1408z" />
<glyph unicode="&#xfb;" d="M0 0v1088h320v-768h768v768h320v-1088h-1408z" />
<glyph unicode="&#xfc;" d="M0 0v1088h320v-768h768v768h320v-1088h-1408z" />
<glyph unicode="&#xfd;" horiz-adv-x="1408" d="M-128 1088h448l352 -352l352 352h448l-640 -640v-448h-320v448z" />
<glyph unicode="&#xfe;" horiz-adv-x="2496" d="M0 0v640l320 -320v320h128v-640l-320 320v-320h-128zM512 0v640l448 -448v-192l-320 320v-320h-128zM1024 0v640h128v-512h320v-128h-448zM1536 0v128h128v-128h-128zM1728 0v128h192v64h-192v320h320v-128h-192v-64h192v-320h-320zM2112 0v512h320v-512h-320zM2240 128 h64v256h-64v-256z" />
<glyph unicode="&#xff;" horiz-adv-x="1408" d="M-128 1088h448l352 -352l352 352h448l-640 -640v-448h-320v448z" />
<glyph unicode="&#x178;" horiz-adv-x="1408" d="M-128 1088h448l352 -352l352 352h448l-640 -640v-768l-320 -320v1088z" />
<glyph unicode="&#x2000;" horiz-adv-x="864" />
<glyph unicode="&#x2001;" horiz-adv-x="1728" />
<glyph unicode="&#x2002;" horiz-adv-x="864" />
<glyph unicode="&#x2003;" horiz-adv-x="1728" />
<glyph unicode="&#x2004;" horiz-adv-x="576" />
<glyph unicode="&#x2005;" horiz-adv-x="432" />
<glyph unicode="&#x2006;" horiz-adv-x="288" />
<glyph unicode="&#x2007;" horiz-adv-x="288" />
<glyph unicode="&#x2008;" horiz-adv-x="216" />
<glyph unicode="&#x2009;" horiz-adv-x="345" />
<glyph unicode="&#x200a;" horiz-adv-x="96" />
<glyph unicode="&#x2010;" horiz-adv-x="1024" d="M0 384v320h960v-320h-960z" />
<glyph unicode="&#x2011;" horiz-adv-x="1024" d="M0 384v320h960v-320h-960z" />
<glyph unicode="&#x2012;" horiz-adv-x="1024" d="M0 384v320h960v-320h-960z" />
<glyph unicode="&#x2013;" horiz-adv-x="1088" d="M0 384v320h1024v-320h-1024z" />
<glyph unicode="&#x2014;" horiz-adv-x="2496" d="M0 0v640l320 -320v320h128v-640l-320 320v-320h-128zM512 0v640l448 -448v-192l-320 320v-320h-128zM1024 0v640h128v-512h320v-128h-448zM1536 0v128h128v-128h-128zM1728 0v128h192v64h-192v320h320v-128h-192v-64h192v-320h-320zM2112 0v512h320v-512h-320zM2240 128 h64v256h-64v-256z" />
<glyph unicode="&#x2018;" horiz-adv-x="384" d="M0 768v320h320v-320h-320z" />
<glyph unicode="&#x2019;" horiz-adv-x="384" d="M0 768v320h320v-320h-320z" />
<glyph unicode="&#x201a;" horiz-adv-x="2496" d="M0 0v640l320 -320v320h128v-640l-320 320v-320h-128zM512 0v640l448 -448v-192l-320 320v-320h-128zM1024 0v640h128v-512h320v-128h-448zM1536 0v128h128v-128h-128zM1728 0v128h192v64h-192v320h320v-128h-192v-64h192v-320h-320zM2112 0v512h320v-512h-320zM2240 128 h64v256h-64v-256z" />
<glyph unicode="&#x201c;" horiz-adv-x="768" d="M0 768v320h320v-320h-320zM384 768v320h320v-320h-320z" />
<glyph unicode="&#x201d;" horiz-adv-x="768" d="M0 768v320h320v-320h-320zM384 768v320h320v-320h-320z" />
<glyph unicode="&#x201e;" horiz-adv-x="2496" d="M0 0v640l320 -320v320h128v-640l-320 320v-320h-128zM512 0v640l448 -448v-192l-320 320v-320h-128zM1024 0v640h128v-512h320v-128h-448zM1536 0v128h128v-128h-128zM1728 0v128h192v64h-192v320h320v-128h-192v-64h192v-320h-320zM2112 0v512h320v-512h-320zM2240 128 h64v256h-64v-256z" />
<glyph unicode="&#x2022;" horiz-adv-x="2496" d="M0 0v640l320 -320v320h128v-640l-320 320v-320h-128zM512 0v640l448 -448v-192l-320 320v-320h-128zM1024 0v640h128v-512h320v-128h-448zM1536 0v128h128v-128h-128zM1728 0v128h192v64h-192v320h320v-128h-192v-64h192v-320h-320zM2112 0v512h320v-512h-320zM2240 128 h64v256h-64v-256z" />
<glyph unicode="&#x2026;" horiz-adv-x="1152" d="M0 0v320h320v-320h-320zM384 0v320h320v-320h-320zM768 0v320h320v-320h-320z" />
<glyph unicode="&#x202f;" horiz-adv-x="345" />
<glyph unicode="&#x2039;" horiz-adv-x="2496" d="M0 0v640l320 -320v320h128v-640l-320 320v-320h-128zM512 0v640l448 -448v-192l-320 320v-320h-128zM1024 0v640h128v-512h320v-128h-448zM1536 0v128h128v-128h-128zM1728 0v128h192v64h-192v320h320v-128h-192v-64h192v-320h-320zM2112 0v512h320v-512h-320zM2240 128 h64v256h-64v-256z" />
<glyph unicode="&#x203a;" horiz-adv-x="2496" d="M0 0v640l320 -320v320h128v-640l-320 320v-320h-128zM512 0v640l448 -448v-192l-320 320v-320h-128zM1024 0v640h128v-512h320v-128h-448zM1536 0v128h128v-128h-128zM1728 0v128h192v64h-192v320h320v-128h-192v-64h192v-320h-320zM2112 0v512h320v-512h-320zM2240 128 h64v256h-64v-256z" />
<glyph unicode="&#x205f;" horiz-adv-x="432" />
<glyph unicode="&#x20ac;" d="M0 384v320h320v384h1088v-320h-768v-64h768v-320h-768v-64h768v-320h-1088v384h-320z" />
<glyph unicode="&#x2122;" horiz-adv-x="2496" d="M0 0v640l320 -320v320h128v-640l-320 320v-320h-128zM512 0v640l448 -448v-192l-320 320v-320h-128zM1024 0v640h128v-512h320v-128h-448zM1536 0v128h128v-128h-128zM1728 0v128h192v64h-192v320h320v-128h-192v-64h192v-320h-320zM2112 0v512h320v-512h-320zM2240 128 h64v256h-64v-256z" />
<glyph unicode="&#x25fc;" horiz-adv-x="1090" d="M0 0v1090h1090v-1090h-1090z" />
<glyph unicode="&#xfb01;" horiz-adv-x="2496" d="M0 0v640l320 -320v320h128v-640l-320 320v-320h-128zM512 0v640l448 -448v-192l-320 320v-320h-128zM1024 0v640h128v-512h320v-128h-448zM1536 0v128h128v-128h-128zM1728 0v128h192v64h-192v320h320v-128h-192v-64h192v-320h-320zM2112 0v512h320v-512h-320zM2240 128 h64v256h-64v-256z" />
<glyph unicode="&#xfb02;" horiz-adv-x="2496" d="M0 0v640l320 -320v320h128v-640l-320 320v-320h-128zM512 0v640l448 -448v-192l-320 320v-320h-128zM1024 0v640h128v-512h320v-128h-448zM1536 0v128h128v-128h-128zM1728 0v128h192v64h-192v320h320v-128h-192v-64h192v-320h-320zM2112 0v512h320v-512h-320zM2240 128 h64v256h-64v-256z" />
</font>
</defs>
</svg>
