<svg xmlns="http://www.w3.org/2000/svg" xmlns:xlink="http://www.w3.org/1999/xlink" viewBox="0 0 949 370.07"><defs><style>.cls-1,.cls-2{fill:none;stroke-linejoin:round;}.cls-1{stroke-width:30px;stroke:url(#linear-gradient);}.cls-2{stroke:#000;stroke-linecap:round;stroke-width:15px;}.cls-3{fill:#fff;}</style><linearGradient id="linear-gradient" x1="634.03" y1="205.79" x2="749.85" y2="638.05" gradientTransform="matrix(1, -0.15, 0, 1, -217.44, -139.09)" gradientUnits="userSpaceOnUse"><stop offset="0" stop-color="#971c28"/><stop offset="0.54" stop-color="#75235d"/><stop offset="1" stop-color="#5a2887"/></linearGradient></defs><g id="Layer_2" data-name="Layer 2"><polygon class="cls-1" points="15 154.54 409 94.72 409 160.72 474 84.84 540 140.82 540 74.82 934 15 934 201 606 250.8 594.69 252.52 595 263.47 474 161.84 354 300.07 354 355.07 157 187.98 157 318.98 15 340.54 15 154.54"/><polygon points="15 154.54 409 94.72 409 160.72 474 84.84 540 140.82 540 74.82 934 15 934 201 606 250.8 594.69 252.52 595 263.47 474 161.84 354 300.07 354 355.07 157 187.98 157 318.98 15 340.54 15 154.54"/><polygon class="cls-2" points="15 154.54 409 94.72 409 160.72 474 84.84 540 140.82 540 74.82 934 15 934 201 606 250.8 594.69 252.52 595 263.47 474 161.84 354 300.07 354 355.07 157 187.98 157 318.98 15 340.54 15 154.54"/></g><g id="Layer_1" data-name="Layer 1"><polygon class="cls-3" points="17 156.32 89.56 145.3 89.56 195.94 67.69 199.27 67.69 279.87 89.56 276.55 89.56 327.19 17 338.21 17 156.32"/><path d="M305,320.35V367l-18.47,2.81-3.4.51v84.66l4.6-.7L305,451.6v46.6l-68.56,10.41V330.76L305,320.35m4-4.65-76.56,11.63V513.26L309,501.64V447l-21.87,3.32V373.71L309,370.39V315.7Z" transform="translate(-217.44 -172.73)"/><polygon class="cls-3" points="172.77 198.29 290.44 180.43 290.44 165.44 155.19 185.98 155.19 317.23 104.5 324.93 104.5 143.03 341.13 107.11 341.13 223.37 294.73 230.42 352.06 279.04 352.06 350.36 172.77 198.29"/><path d="M556.56,282.16V394.38l-40.35,6.13-8.69,1.31,6.71,5.69L567.5,452.7v66.07L394.86,372.34l111.62-16.95,3.4-.52v-19l-4.6.7L374,356.47l-3.4.52V488.24l-46.69,7.08V317.48l232.62-35.32m4-4.66L319.94,314V500l54.69-8.31V360.42L505.88,340.5v10.93L385.56,369.7,571.5,527.41V450.84l-54.69-46.38,43.75-6.64V277.5Z" transform="translate(-217.44 -172.73)"/><polygon class="cls-3" points="356.06 104.84 406.75 97.14 406.75 165.79 474.59 87.66 542 144.83 542 76.61 592.69 68.91 592.69 259.14 474.16 158.61 356.06 294.64 356.06 104.84"/><path d="M808.13,244V427.55L694.4,331.09l-3-2.56-2.6,3L575.5,462V279.28l46.69-7.09v71.68l7-8.08,63-72.61,62.61,53.11,6.59,5.58V251.05L808.13,244m4-4.65-54.69,8.3v65.63l-65.63-55.66-65.62,75.59V267.54l-54.69,8.3V472.72L691.81,334.14l120.32,102V239.31Z" transform="translate(-217.44 -172.73)"/><polygon class="cls-3" points="607.63 66.64 844.25 30.71 844.25 81.35 658.31 109.59 658.31 190.19 793.56 169.66 793.56 154.68 726.54 164.85 675.9 121.9 844.25 96.34 844.25 212.6 607.63 248.53 607.63 66.64"/><path d="M1059.69,205.76v46.6L877.15,280.08l-3.4.51v84.66l4.6-.7,131.25-19.93,3.4-.52v-19l-4.6.7-63.82,9.69L898,295.94l161.71-24.55V383.61L827.06,418.93V241.09l232.63-35.33m4-4.65L823.06,237.65V423.58l240.63-36.53V266.74l-175,26.57,54.69,46.38,65.62-10v10.94L877.75,360.59V284l185.94-28.23V201.11Z" transform="translate(-217.44 -172.73)"/><polygon class="cls-3" points="859.19 159.69 881.06 156.37 881.06 75.77 859.19 79.09 859.19 28.45 931.75 17.43 931.75 199.32 859.19 210.34 859.19 159.69"/><path d="M1147.19,192.48V370.32l-68.56,10.41V334.14l18.47-2.81,3.4-.51V246.16l-4.6.7-17.27,2.62V202.89l68.56-10.41m4-4.65-76.56,11.62v54.69l21.87-3.32v76.56l-21.87,3.32v54.69l76.56-11.63V187.83Z" transform="translate(-217.44 -172.73)"/></g></svg>